<?xml version="1.0" encoding="UTF-8" standalone="no" ?>
<!DOCTYPE svg PUBLIC "-//W3C//DTD SVG 1.1//EN" "http://www.w3.org/Graphics/SVG/1.1/DTD/svg11.dtd">
<svg xmlns="http://www.w3.org/2000/svg" xmlns:xlink="http://www.w3.org/1999/xlink" version="1.1" width="1080" height="1080" viewBox="0 0 1080 1080" xml:space="preserve">
<desc>Created with Fabric.js 4.2.0</desc>
<defs>
</defs>
<g transform="matrix(1 0 0 1 540 540)" id="ed8b7dd1-2fc9-41e1-8b2b-ef05d199a47f"  >
<rect style="stroke: none; stroke-width: 1; stroke-dasharray: none; stroke-linecap: butt; stroke-dashoffset: 0; stroke-linejoin: miter; stroke-miterlimit: 4; fill: rgb(255,255,255); fill-opacity: 0; fill-rule: nonzero; opacity: 1;" vector-effect="non-scaling-stroke"  x="-540" y="-540" rx="0" ry="0" width="1080" height="1080" />
</g>
<g transform="matrix(1 0 0 1 540 540)" id="edb22aad-5955-4588-a768-bf22f962402d"  >
</g>
<g transform="matrix(16.81 0 0 16.81 540 540)" id="41dc9785-a089-4466-b4f7-120cf9968687"  >
<path style="stroke: rgb(0,0,0); stroke-width: 0; stroke-dasharray: none; stroke-linecap: butt; stroke-dashoffset: 0; stroke-linejoin: miter; stroke-miterlimit: 4; fill: rgb(0,0,0); fill-rule: nonzero; opacity: 1;" vector-effect="non-scaling-stroke"  transform=" translate(-30, -30)" d="M 0 0 L 0 60 L 60 60 L 60 0 L 0 0 z M 58 58 L 2 58 L 2 2 L 58 2 L 58 58 z" stroke-linecap="round" />
</g>
<g transform="matrix(1.42 0 0 1.42 540 540)"  >
<g style="" vector-effect="non-scaling-stroke"   >
		<g transform="matrix(1 0 0 1 0 0)"  >
<path style="stroke: none; stroke-width: 1; stroke-dasharray: none; stroke-linecap: butt; stroke-dashoffset: 0; stroke-linejoin: miter; stroke-miterlimit: 4; fill: rgb(0,0,0); fill-rule: nonzero; opacity: 1;" vector-effect="non-scaling-stroke"  transform=" translate(-245.8, -245.8)" d="M 491.482 169.801 C 489.482 105.40099999999998 463.882 48.20099999999999 419.88200000000006 8.600999999999999 C 419.08200000000005 7.800999999999999 417.88200000000006 7.400999999999999 415.88200000000006 7.400999999999999 C 415.4820000000001 7.400999999999999 414.6820000000001 7.400999999999999 413.88200000000006 7.800999999999999 C 413.4820000000001 7.800999999999999 412.6820000000001 8.200999999999999 412.28200000000004 8.200999999999999 C 402.682 12.200999999999999 384.682 29.000999999999998 384.682 38.601 C 384.682 40.201 385.482 41.400999999999996 386.682 43.400999999999996 C 386.682 43.400999999999996 386.682 43.400999999999996 386.682 43.800999999999995 L 387.082 44.20099999999999 C 389.48199999999997 46.60099999999999 393.48199999999997 49.800999999999995 399.882 54.60099999999999 C 410.682 62.60099999999999 425.482 73.80099999999999 433.482 84.601 C 433.482 84.601 433.482 84.601 433.482 85.001 C 433.882 85.40100000000001 434.28200000000004 86.20100000000001 434.682 86.601 C 436.28200000000004 89.401 437.482 91.801 438.28200000000004 94.201 C 444.28200000000004 116.601 419.482 169.801 378.28200000000004 223.40099999999998 C 341.08200000000005 271.40099999999995 294.682 314.601 247.48200000000003 345.40099999999995 C 189.88200000000003 383.001 131.48200000000003 401.80099999999993 74.68200000000002 401.80099999999993 C 64.28200000000001 401.80099999999993 53.48200000000001 401.40099999999995 43.082000000000015 400.2009999999999 C 26.282000000000014 398.2009999999999 14.282000000000014 401.80099999999993 7.082000000000015 410.2009999999999 C -2.1179999999999843 421.0009999999999 0.2820000000000151 435.80099999999993 0.2820000000000151 436.6009999999999 C 0.6820000000000151 437.8009999999999 1.482000000000015 439.00099999999986 2.282000000000015 439.4009999999999 C 3.082000000000015 439.8009999999999 84.28200000000001 484.2009999999999 184.282 484.2009999999999 C 267.882 484.2009999999999 339.882 454.2009999999999 399.082 395.0009999999999 C 460.282 333.401 493.882 251.401 491.482 169.801 z M 393.082 38.201 C 394.282 33.001 407.082 18.601 414.282 15.801000000000002 C 415.882 16.601000000000003 416.282 17.401000000000003 416.282 18.601000000000003 C 416.68199999999996 23.801000000000002 409.082 34.601 400.68199999999996 38.601 C 397.082 40.201 394.682 40.201 393.082 38.201 z M 393.882 388.601 C 336.682 446.201 266.28200000000004 475.801 185.082 475.801 C 127.88199999999999 475.801 77.082 461.001 44.68199999999999 448.601 C 62.28199999999999 451.401 83.082 453.401 105.88199999999999 453.401 C 125.082 453.401 145.882 452.201 167.082 449.00100000000003 C 228.28199999999998 440.60100000000006 313.882 415.401 376.682 344.601 C 381.082 339.801 385.082 334.601 389.082 329.401 C 390.282 327.801 390.282 325.00100000000003 388.282 323.801 C 386.68199999999996 322.601 383.882 322.601 382.68199999999996 324.601 C 378.68199999999996 329.401 374.68199999999996 334.601 370.282 339.401 C 309.48199999999997 408.601 225.48199999999997 433.001 165.88199999999998 441.401 C 99.48199999999997 450.601 36.28199999999998 443.00100000000003 9.081999999999965 430.601 C 8.281999999999965 427.001 9.081999999999965 420.201 13.481999999999966 415.001 C 19.081999999999965 408.601 28.681999999999967 406.20099999999996 42.68199999999997 407.801 C 53.48199999999997 409.001 64.28199999999997 409.401 75.08199999999997 409.401 C 133.48199999999997 409.401 193.08199999999997 390.201 252.68199999999996 351.401 C 300.68199999999996 320.201 347.88199999999995 276.601 385.48199999999997 227.80100000000002 C 420.282 182.601 443.082 138.601 447.48199999999997 109.80100000000002 C 452.68199999999996 127.40100000000001 454.282 148.601 451.082 172.20100000000002 C 450.282 177.80100000000002 449.48199999999997 183.80100000000002 448.282 189.401 C 447.48199999999997 192.601 447.082 195.401 446.282 198.601 C 445.882 200.601 447.082 203.001 449.082 203.401 C 449.48199999999997 203.401 449.882 203.401 449.882 203.401 C 451.482 203.401 453.482 202.20100000000002 453.882 200.20100000000002 C 454.682 197.00100000000003 455.482 193.80100000000002 455.882 190.60100000000003 C 457.082 184.60100000000003 458.282 178.60100000000003 459.082 172.60100000000003 C 463.882 133.80100000000004 457.882 100.60100000000003 441.48199999999997 79.00100000000003 C 433.082 67.00100000000003 417.88199999999995 55.80100000000003 405.88199999999995 46.601000000000035 C 405.08199999999994 46.201000000000036 404.2819999999999 45.40100000000003 403.48199999999997 45.00100000000003 C 403.88199999999995 45.00100000000003 404.282 44.601000000000035 404.68199999999996 44.601000000000035 C 413.08199999999994 41.00100000000003 421.88199999999995 31.401000000000035 424.282 22.601000000000035 C 461.082 60.201000000000036 482.282 111.80100000000004 484.282 169.40100000000004 C 486.682 247.401 452.682 329.401 393.882 388.601 z" stroke-linecap="round" />
</g>
		<g transform="matrix(1 0 0 1 177.61 16.87)"  >
<path style="stroke: none; stroke-width: 1; stroke-dasharray: none; stroke-linecap: butt; stroke-dashoffset: 0; stroke-linejoin: miter; stroke-miterlimit: 4; fill: rgb(0,0,0); fill-rule: nonzero; opacity: 1;" vector-effect="non-scaling-stroke"  transform=" translate(-423.41, -262.68)" d="M 441.882 224.201 C 439.882 223.40099999999998 437.482 224.601 436.682 226.601 C 428.28200000000004 249.801 417.082 273.001 402.682 295.001 C 401.882 297.001 402.28200000000004 299.40099999999995 404.28200000000004 300.601 C 405.08200000000005 301.001 405.88200000000006 301.401 406.28200000000004 301.401 C 407.482 301.401 409.08200000000005 300.601 409.482 299.401 C 423.882 276.601 435.882 253.001 444.28200000000004 229.401 C 445.082 227.401 443.882 225.001 441.882 224.201 z" stroke-linecap="round" />
</g>
</g>
</g>
<g transform="matrix(1.87 -8.8 8.8 1.87 362.17 214.7)"  >
<g style="" vector-effect="non-scaling-stroke"   >
		<g transform="matrix(1 0 0 1 14.92 -4.11)"  >
<path style="stroke: none; stroke-width: 1; stroke-dasharray: none; stroke-linecap: butt; stroke-dashoffset: 0; stroke-linejoin: miter; stroke-miterlimit: 4; fill: rgb(0,0,0); fill-rule: nonzero; opacity: 1;" vector-effect="non-scaling-stroke"  transform=" translate(-38.42, -19.39)" d="M 45.328 16.918 L 40.865 12.453999999999999 C 38.636 10.223999999999998 35.009 10.224999999999998 32.78 12.454999999999998 L 31.507 13.727999999999998 L 36.168 14.077999999999998 C 37.01 13.850999999999997 37.944 14.056999999999997 38.605 14.715999999999998 L 43.068 19.177999999999997 C 44.047 20.159999999999997 44.047 21.757999999999996 43.065999999999995 22.74 L 41.745999999999995 24.061 C 40.76499999999999 25.042 39.16499999999999 25.044 38.184999999999995 24.061 L 33.72 19.6 C 33.412 19.293000000000003 33.214 18.924000000000003 33.1 18.536 L 29.830000000000002 18.291 C 29.937 19.594 30.462000000000003 20.869 31.456000000000003 21.862000000000002 L 35.919000000000004 26.325000000000003 C 38.148 28.554000000000002 41.774 28.554000000000002 44.004000000000005 26.324 L 45.325 25.004 C 47.559 22.774 47.559 19.148 45.328 16.918 z" stroke-linecap="round" />
</g>
		<g transform="matrix(1 0 0 1 -9.4 0)"  >
<path style="stroke: none; stroke-width: 1; stroke-dasharray: none; stroke-linecap: butt; stroke-dashoffset: 0; stroke-linejoin: miter; stroke-miterlimit: 4; fill: rgb(0,0,0); fill-rule: nonzero; opacity: 1;" vector-effect="non-scaling-stroke"  transform=" translate(-14.1, -23.5)" d="M 23.612 18.342 L 21.491 21.854999999999997 L 14.288 17.504999999999995 L 16.41 13.991999999999996 C 17.611 12.002999999999995 20.204 11.358999999999995 22.188 12.558999999999996 C 22.441 12.710999999999995 22.671 12.886999999999995 22.878999999999998 13.080999999999996 L 27.983999999999998 13.463999999999995 C 27.369 11.641999999999996 26.136 10.018999999999995 24.366 8.949999999999996 C 20.39 6.549 15.2 7.833 12.799 11.812 L 10.677 15.325 L 10.309999999999999 15.104 C 8.822 14.206 6.8679999999999986 14.687 5.969999999999999 16.176 L 0.45199999999999907 25.316 C -0.44700000000000095 26.802999999999997 0.03599999999999909 28.756999999999998 1.5239999999999991 29.656 L 16.682 38.809 C 18.169999999999998 39.705999999999996 20.124 39.226 21.023 37.736999999999995 L 26.54 28.598999999999997 C 27.439 27.111999999999995 26.956 25.156999999999996 25.468 24.257999999999996 L 25.101 24.034999999999997 L 27.223 20.520999999999997 C 27.675 19.770999999999997 27.996 18.977999999999998 28.195 18.166999999999998 L 23.849 17.842 C 23.775 18.009 23.709 18.181 23.612 18.342 z" stroke-linecap="round" />
</g>
		<g transform="matrix(1 0 0 1 5.83 -7.59)"  >
<path style="stroke: none; stroke-width: 1; stroke-dasharray: none; stroke-linecap: butt; stroke-dashoffset: 0; stroke-linejoin: miter; stroke-miterlimit: 4; fill: rgb(0,0,0); fill-rule: nonzero; opacity: 1;" vector-effect="non-scaling-stroke"  transform=" translate(-29.33, -15.91)" d="M 20.394 15.239 C 20.328999999999997 16.12 20.99 16.885 21.871 16.953 L 36.543 18.055 C 37.422 18.121 38.19 17.462 38.257 16.579 C 38.323 15.699 37.661 14.932 36.782 14.865 L 22.11 13.764 C 21.23 13.697 20.461 14.357 20.394 15.239 z" stroke-linecap="round" />
</g>
</g>
</g>
</svg>